# xmcd CD database file
# Copyright (C) 1993-1998 Ti Kan
#
# Track frame offsets:
#	150
#	22627
#	47645
#	75235
#
# Disc length: 1353 seconds
#
# Revision: 1
# Processed by: cddbd v1.4b41PL1 Copyright (c) Steve Scherf et al.
# Submitted via: CDValet v3.31 - Copyright (c) 1997 Greg Leichner
#
DISCID=18054704
DTITLE=Barry White - Practice What You Preach (Single)
DYEAR=1900
DGENRE=
TTITLE0=Practice What You Preach (Michael Angelo Do It Remix)
TTITLE1=Practice What You Preach  (Michael Angelo Remix)
TTITLE2=Practice What You Preach (Kenneth Crouch Remix)
TTITLE3=Practice What You Preach (Superlover-Undercover Mix)
EXTD=
EXTT0=
EXTT1=
EXTT2=
EXTT3=
PLAYORDER=
